<svg xmlns:xlink="http://www.w3.org/1999/xlink" xmlns="http://www.w3.org/2000/svg" width="24" height="24" viewBox="0 0 24 24" fill="none">
<path fill-rule="evenodd" clip-rule="evenodd" d="M11.458 21.269C11.8086 21.3954 12.1924 21.3954 12.543 21.269C15.3164 20.1741 18.3718 20.0168 21.243 20.821C21.7244 20.9444 22.2358 20.8381 22.6281 20.5332C23.0205 20.2282 23.2497 19.7589 23.249 19.262V4.92798C23.2475 4.22934 22.7948 3.61171 22.129 3.39998C19.0114 2.32568 15.6131 2.39658 12.543 3.59998C12.1922 3.72552 11.8088 3.72552 11.458 3.59998C8.38756 2.3966 4.98896 2.3257 1.871 3.39998C1.20481 3.61135 0.751633 4.22907 0.750002 4.92798V19.262C0.749284 19.7589 0.978507 20.2282 1.37088 20.5332C1.76325 20.8381 2.27463 20.9444 2.756 20.821C5.62782 20.0166 8.68397 20.1739 11.458 21.269Z" stroke="#37315D" stroke-width="1.5" stroke-linecap="round" stroke-linejoin="round"/>
<path d="M12 3.68201V21.364" stroke="#37315D" stroke-width="1.5" stroke-linecap="round" stroke-linejoin="round"/>
</svg>