<svg xmlns:xlink="http://www.w3.org/1999/xlink" xmlns="http://www.w3.org/2000/svg" width="121" height="13" viewBox="0 0 121 13" fill="none">
<path d="M6.949 10.4761C9.88101 10.0999 12.7044 9.78645 15.6364 9.47299C18.7857 9.15953 21.9349 8.84608 25.0841 8.53262C27.0387 8.34454 28.8848 8.15647 30.8395 8.03109C31.8168 7.9684 32.6856 7.9057 33.6629 7.78032C34.0973 7.71763 35.0746 7.65494 33.2285 7.78032C33.4457 7.78032 33.7715 7.71763 33.9887 7.71763C34.6402 7.65494 35.2918 7.59225 35.8348 7.59225C45.0652 6.90264 54.4042 6.4638 63.7432 6.27573C68.5213 6.21304 73.1908 6.21304 77.9689 6.33842C80.3579 6.40111 82.6384 6.52649 84.9189 6.65188C85.4618 6.71457 86.0048 6.71457 86.6563 6.77726C87.0907 6.83995 89.154 6.96533 87.1993 6.83995C88.2852 6.90264 89.3712 7.02802 90.4571 7.15341C94.9094 7.59225 99.3618 8.21916 103.597 9.22222C103.814 9.28492 104.031 9.34761 104.248 9.34761C102.511 8.97146 103.597 9.22222 104.031 9.28492C104.574 9.4103 105.009 9.53568 105.443 9.66106C106.312 9.91183 107.18 10.1626 108.049 10.4761C108.809 10.7895 109.57 11.103 110.438 11.4164C111.198 11.7299 109.352 10.9149 110.004 11.2284C110.221 11.3537 110.438 11.4164 110.655 11.5418C110.981 11.7299 111.416 11.918 111.741 12.106C113.805 13.2345 117.388 13.3599 119.451 12.106C121.406 10.8522 121.623 8.90877 119.451 7.65494C113.479 4.33229 105.334 2.51424 97.1899 1.51118C87.7423 0.320043 77.8603 -0.0561056 68.1955 0.00658579C50.3863 0.0692772 32.577 1.3858 15.0935 3.20385C11.4013 3.58 7.70915 3.95615 4.01699 4.45768C1.19356 4.83383 -0.652519 6.77726 0.216226 8.34454C1.30216 9.97452 4.01699 10.8522 6.949 10.4761Z" fill="#48BD8B"/>
</svg>