<svg xmlns:xlink="http://www.w3.org/1999/xlink" xmlns="http://www.w3.org/2000/svg" width="24" height="24" viewBox="0 0 24 24" fill="none">
<path fill-rule="evenodd" clip-rule="evenodd" d="M2.25003 3.92393V11.5379C2.25008 16.4644 5.28401 20.8822 9.88203 22.6509L10.923 23.0509C11.6163 23.3176 12.3838 23.3176 13.077 23.0509L14.118 22.6509C18.7161 20.8822 21.75 16.4644 21.75 11.5379V3.92393C21.7539 3.33868 21.4142 2.80555 20.882 2.56193C18.0819 1.33972 15.0552 0.722594 12 0.750934C8.94489 0.722594 5.9182 1.33972 3.11803 2.56193C2.58588 2.80555 2.24612 3.33868 2.25003 3.92393Z" stroke="#222222" stroke-width="1.5" stroke-linecap="round" stroke-linejoin="round"/>
<path fill-rule="evenodd" clip-rule="evenodd" d="M7.5 11.25C7.5 10.4216 8.17157 9.75 9 9.75H15C15.8284 9.75 16.5 10.4216 16.5 11.25V15.75C16.5 16.5784 15.8284 17.25 15 17.25H9C8.17157 17.25 7.5 16.5784 7.5 15.75V11.25Z" stroke="#222222" stroke-width="1.5" stroke-linecap="round" stroke-linejoin="round"/>
<path fill-rule="evenodd" clip-rule="evenodd" d="M12 5.25V5.25C10.3431 5.25 9 6.59315 9 8.25V9.75H15V8.25C15 6.59315 13.6569 5.25 12 5.25Z" stroke="#222222" stroke-width="1.5" stroke-linecap="round" stroke-linejoin="round"/>
<path d="M12 13.1563C12.2071 13.1562 12.375 13.3241 12.375 13.5312C12.375 13.7384 12.2071 13.9062 12 13.9062C11.7929 13.9062 11.625 13.7384 11.625 13.5312C11.625 13.3241 11.7929 13.1562 12 13.1562" stroke="#222222" stroke-width="1.5" stroke-linecap="round" stroke-linejoin="round"/>
</svg>