<svg xmlns:xlink="http://www.w3.org/1999/xlink" xmlns="http://www.w3.org/2000/svg" width="48" height="47" viewBox="0 0 48 47" fill="none">
<path fill-rule="evenodd" clip-rule="evenodd" d="M34.446 12C34.446 17.799 29.745 22.5 23.946 22.5C18.147 22.5 13.446 17.799 13.446 12V1.5H34.446V12Z" fill="#706B9B" stroke="#706B9B" stroke-width="1.5" stroke-linecap="round" stroke-linejoin="round"/>
<path fill-rule="evenodd" clip-rule="evenodd" d="M1.446 1.5H46.446H1.446Z" fill="#706B9B"/>
<path d="M1.446 1.5H46.446" stroke="#706B9B" stroke-width="1.5" stroke-linecap="round" stroke-linejoin="round"/>
<path fill-rule="evenodd" clip-rule="evenodd" d="M13.446 10.5H34.446H13.446Z" fill="#706B9B"/>
<path d="M13.446 10.5H34.446" stroke="white" stroke-width="1.5" stroke-linecap="round" stroke-linejoin="round"/>
<path fill-rule="evenodd" clip-rule="evenodd" d="M4.446 1.5V16.5V1.5Z" fill="#706B9B"/>
<path d="M4.446 1.5V16.5" stroke="#706B9B" stroke-width="1.5" stroke-linecap="round" stroke-linejoin="round"/>
<path fill-rule="evenodd" clip-rule="evenodd" d="M13.8 29.6079L23.946 37.4999L34.09 29.6079" fill="#706B9B"/>
<path d="M13.8 29.6079L23.946 37.4999L34.09 29.6079" stroke="white" stroke-width="1.5" stroke-linecap="round" stroke-linejoin="round"/>
<path fill-rule="evenodd" clip-rule="evenodd" d="M44.892 46.5001C44.1026 35.5144 34.96 27.0051 23.946 27.0051C12.932 27.0051 3.78935 35.5144 3 46.5001" fill="#706B9B"/>
<path fill-rule="evenodd" clip-rule="evenodd" d="M13.552 13.5C13.552 13.5 13.446 21 7.446 24L13.552 13.5Z" fill="#706B9B"/>
<path d="M13.552 13.5C13.552 13.5 13.446 21 7.446 24" stroke="#706B9B" stroke-width="1.5" stroke-linecap="round" stroke-linejoin="round"/>
<path fill-rule="evenodd" clip-rule="evenodd" d="M34.338 13.5C34.338 13.5 34.446 21 40.446 24L34.338 13.5Z" fill="#706B9B"/>
<path d="M34.338 13.5C34.338 13.5 34.446 21 40.446 24" stroke="#706B9B" stroke-width="1.5" stroke-linecap="round" stroke-linejoin="round"/>
</svg>