<svg xmlns:xlink="http://www.w3.org/1999/xlink" xmlns="http://www.w3.org/2000/svg" width="46" height="38" viewBox="0 0 46 38" fill="none">
<path d="M43.5438 12.3753H41.815L39.0306 3.63981C38.4063 1.67104 36.5819 0.375427 34.5663 0.375427H11.4792C9.41483 0.375427 7.63922 1.67104 7.01483 3.63981L4.1836 12.3753H2.45483C1.20607 12.3753 0.199219 13.3841 0.199219 14.6309V15.9266C0.199219 17.1753 1.20799 18.1822 2.45483 18.1822H3.41483V35.4132C3.41483 36.662 4.4236 37.6688 5.67045 37.6688H9.41483C10.6636 37.6688 11.6705 36.6601 11.6705 35.4132V31.9576H34.326V35.4132C34.326 36.662 35.3347 37.6688 36.5816 37.6688H40.326C41.5747 37.6688 42.5816 36.6601 42.5816 35.4132L42.5835 18.1351H43.5435C44.7922 18.1351 45.7991 17.1264 45.7991 15.8795V14.5839C45.7991 13.3839 44.7903 12.3751 43.5435 12.3751L43.5438 12.3753ZM12.1508 26.7283C10.4221 26.7283 9.03084 25.3371 9.03084 23.6083C9.03084 21.8795 10.4221 20.4883 12.1508 20.4883C13.8796 20.4883 15.2708 21.8795 15.2708 23.6083C15.2708 25.3352 13.8796 26.7283 12.1508 26.7283ZM33.9438 26.7283C32.215 26.7283 30.8238 25.3371 30.8238 23.6083C30.8238 21.8795 32.215 20.4883 33.9438 20.4883C35.6726 20.4883 37.0638 21.8795 37.0638 23.6083C37.0638 25.3352 35.6707 26.7283 33.9438 26.7283ZM7.97483 15.3038L11.2861 4.98381C11.3348 4.88818 11.3817 4.83944 11.4773 4.83944H34.5173C34.6129 4.83944 34.7086 4.88818 34.7086 4.98381L38.0198 15.3038H7.97483Z" fill="#706B9B"/>
</svg>