<svg xmlns:xlink="http://www.w3.org/1999/xlink" xmlns="http://www.w3.org/2000/svg" width="48" height="42" viewBox="0 0 48 42" fill="none">
<rect x="1" y="10" width="13" height="30" fill="#706B9B"/>
<rect x="33" y="10" width="13" height="30" fill="#706B9B"/>
<path fill-rule="evenodd" clip-rule="evenodd" d="M13.5 40.5V10.5L18 1.5H30L34.5 10.5V40.5H13.5Z" fill="#706B9B" stroke="white" stroke-width="1.5" stroke-linecap="round" stroke-linejoin="round"/>
<path fill-rule="evenodd" clip-rule="evenodd" d="M30 1.5H40.5L46.5 10.5H34.5" fill="#706B9B"/>
<path d="M30 1.5H40.5L46.5 10.5H34.5" stroke="white" stroke-width="1.5" stroke-linecap="round" stroke-linejoin="round"/>
<path fill-rule="evenodd" clip-rule="evenodd" d="M13.5 10.5H1.5L7.5 1.5H18" fill="#706B9B"/>
<path d="M13.5 10.5H1.5L7.5 1.5H18" stroke="white" stroke-width="1.5" stroke-linecap="round" stroke-linejoin="round"/>
<path fill-rule="evenodd" clip-rule="evenodd" d="M34.5 10.5H13.5H34.5Z" fill="#706B9B"/>
<path d="M34.5 10.5H13.5" stroke="white" stroke-width="1.5" stroke-linecap="round" stroke-linejoin="round"/>
<path fill-rule="evenodd" clip-rule="evenodd" d="M1.5 18H13.5H1.5Z" fill="#706B9B"/>
<path d="M1.5 18H13.5" stroke="white" stroke-width="1.5" stroke-linecap="round" stroke-linejoin="round"/>
<path fill-rule="evenodd" clip-rule="evenodd" d="M34.5 18H46.5H34.5Z" fill="#706B9B"/>
<path d="M34.5 18H46.5" stroke="white" stroke-width="1.5" stroke-linecap="round" stroke-linejoin="round"/>
<path fill-rule="evenodd" clip-rule="evenodd" d="M1.5 25.5H13.5H1.5Z" fill="#706B9B"/>
<path d="M1.5 25.5H13.5" stroke="white" stroke-width="1.5" stroke-linecap="round" stroke-linejoin="round"/>
<path fill-rule="evenodd" clip-rule="evenodd" d="M34.5 25.5H46.5H34.5Z" fill="#706B9B"/>
<path d="M34.5 25.5H46.5" stroke="white" stroke-width="1.5" stroke-linecap="round" stroke-linejoin="round"/>
<path fill-rule="evenodd" clip-rule="evenodd" d="M1.5 33H13.5H1.5Z" fill="#706B9B"/>
<path d="M1.5 33H13.5" stroke="white" stroke-width="1.5" stroke-linecap="round" stroke-linejoin="round"/>
<path fill-rule="evenodd" clip-rule="evenodd" d="M34.5 33H46.5H34.5Z" fill="#706B9B"/>
<path d="M34.5 33H46.5" stroke="white" stroke-width="1.5" stroke-linecap="round" stroke-linejoin="round"/>
<path fill-rule="evenodd" clip-rule="evenodd" d="M24 34.5V31.5V34.5Z" fill="#706B9B"/>
<path d="M24 34.5V31.5" stroke="white" stroke-width="1.5" stroke-linecap="round" stroke-linejoin="round"/>
<path fill-rule="evenodd" clip-rule="evenodd" d="M26.9984 19.5H22.9324C21.6471 19.5009 20.5429 20.4128 20.299 21.6747C20.0551 22.9366 20.74 24.1942 21.9324 24.674L26.0604 26.326C27.2527 26.8058 27.9376 28.0634 27.6937 29.3253C27.4499 30.5872 26.3456 31.4991 25.0604 31.5H20.9984" fill="#706B9B"/>
<path d="M26.9984 19.5H22.9324C21.6471 19.5009 20.5429 20.4128 20.299 21.6747C20.0551 22.9366 20.74 24.1942 21.9324 24.674L26.0604 26.326C27.2527 26.8058 27.9376 28.0634 27.6937 29.3253C27.4499 30.5872 26.3456 31.4991 25.0604 31.5H20.9984" stroke="white" stroke-width="1.5" stroke-linecap="round" stroke-linejoin="round"/>
<path fill-rule="evenodd" clip-rule="evenodd" d="M24 19.5V16.5V19.5Z" fill="#706B9B"/>
<path d="M24 19.5V16.5" stroke="white" stroke-width="1.5" stroke-linecap="round" stroke-linejoin="round"/>
</svg>