<svg xmlns:xlink="http://www.w3.org/1999/xlink" xmlns="http://www.w3.org/2000/svg" width="23" height="24" viewBox="0 0 23 24" fill="none">
<path d="M11.246 0C10.7734 0.00750213 10.3961 0.396549 10.4025 0.869208V1.82416C7.85712 2.12747 5.45426 3.53149 3.59156 5.30538C1.4834 7.31172 3.65724e-05 9.7919 3.65724e-05 12.1057V12.1067C-0.00210709 12.3393 0.0900632 12.5644 0.256187 12.7273C0.42231 12.8913 0.647385 12.9802 0.881012 12.9749C1.1243 12.9995 1.36651 12.9202 1.54765 12.7552C1.72879 12.5901 1.82951 12.3554 1.8263 12.1099C1.8263 11.1239 2.58939 10.3158 3.52077 10.3158C4.47464 10.3158 5.26022 11.0853 5.26022 12.0542H5.2613V12.0681C5.25594 12.3007 5.34489 12.5258 5.5078 12.6908C5.67071 12.8569 5.89362 12.9491 6.12621 12.947C6.35771 12.9448 6.57955 12.8494 6.74033 12.6812C6.90002 12.5129 6.98469 12.2868 6.97505 12.0542C6.97505 12.0359 6.97076 12.0188 6.97076 12.0017V11.9834C6.97076 11.0146 7.75851 10.2397 8.71022 10.2397C9.63622 10.2397 10.3682 10.9802 10.3993 11.9363V20.3817H10.4004C10.3993 20.3892 10.3993 20.3978 10.4004 20.4053C10.3972 20.4299 10.3961 20.4535 10.3961 20.4771C10.3961 22.3795 11.9309 24 13.846 24C15.7355 24 17.2757 22.4363 17.2757 20.5416L17.2746 20.5426C17.2778 20.3122 17.1889 20.0914 17.0281 19.9285C16.8673 19.7645 16.6466 19.6723 16.4172 19.6723C16.1878 19.6723 15.9681 19.7645 15.8073 19.9285C15.6455 20.0914 15.5565 20.3122 15.5598 20.5426C15.5598 21.5211 14.7967 22.2864 13.8449 22.2864C12.9275 22.2864 12.1269 21.4633 12.113 20.504C12.1258 20.4183 12.1258 20.3315 12.113 20.2457V12.1905C12.1258 12.1305 12.1323 12.0683 12.1312 12.0061C12.1312 11.0544 12.9607 10.2624 13.9125 10.2624C14.8663 10.2624 15.5437 10.9912 15.5437 12.0029C15.5415 12.1755 15.5919 12.3448 15.6873 12.4895C15.8931 12.8132 16.2886 12.9611 16.6562 12.8518C17.0238 12.7424 17.2735 12.4027 17.2692 12.019C17.2692 11.0801 18.133 10.2752 19.0848 10.2752C20.0022 10.2752 20.7053 11.0898 20.7053 12.1058H20.7042C20.6988 12.5634 21.0536 12.9461 21.5112 12.9729C21.7599 13.0082 22.0107 12.9343 22.1993 12.7682C22.3879 12.6031 22.4951 12.3641 22.4908 12.1133C22.4908 9.82401 21.105 7.33651 19.0793 5.32263C17.2176 3.47169 14.7612 2.01947 12.1116 1.79558V0.86958H12.1127C12.1159 0.638079 12.0248 0.415166 11.8608 0.251175C11.6969 0.087194 11.4739 -0.00283269 11.2414 0.000382941L11.246 0Z" fill="#706B9B"/>
</svg>