<svg xmlns:xlink="http://www.w3.org/1999/xlink" xmlns="http://www.w3.org/2000/svg" width="32" height="32" viewBox="0 0 32 32" fill="none">
<path fill-rule="evenodd" clip-rule="evenodd" d="M3 12.5334V29.0001H9V21.0001C9 19.8955 9.89543 19.0001 11 19.0001H13C14.1046 19.0001 15 19.8955 15 21.0001V29.0001H29V12.5334" fill="#706B9B"/>
<path d="M3 12.5334V29.0001H9V21.0001C9 19.8955 9.89543 19.0001 11 19.0001H13C14.1046 19.0001 15 19.8955 15 21.0001V29.0001H29V12.5334" stroke="white" stroke-width="1.5" stroke-linecap="round" stroke-linejoin="round"/>
<path fill-rule="evenodd" clip-rule="evenodd" d="M31 14L17.1827 3.86664C16.4787 3.35044 15.5213 3.35044 14.8173 3.86664L1 14" fill="#706B9B"/>
<path d="M31 14L17.1827 3.86664C16.4787 3.35044 15.5213 3.35044 14.8173 3.86664L1 14" stroke="white" stroke-width="1.5" stroke-linecap="round" stroke-linejoin="round"/>
<path fill-rule="evenodd" clip-rule="evenodd" d="M21 6.66667V3H27V11.0667" fill="#706B9B"/>
<path d="M21 6.66667V3H27V11.0667" stroke="white" stroke-width="1.5" stroke-linecap="round" stroke-linejoin="round"/>
<rect x="19" y="19" width="6" height="6" fill="#706B9B" stroke="white" stroke-width="1.5" stroke-linecap="round" stroke-linejoin="round"/>
<path d="M1 29H31" stroke="#706B9B" stroke-width="1.5" stroke-linecap="round" stroke-linejoin="round"/>
</svg>