<svg xmlns:xlink="http://www.w3.org/1999/xlink" xmlns="http://www.w3.org/2000/svg" width="188" height="29" viewBox="0 0 188 29" fill="none">
<g clip-path="url(#clip0)">
<path fill-rule="evenodd" clip-rule="evenodd" d="M144.439 21.3855C144.439 23.143 143.072 24.5728 141.392 24.5728C139.713 24.5728 138.346 23.143 138.346 21.3855C138.346 19.6277 139.713 18.198 141.392 18.198C143.072 18.198 144.439 19.6277 144.439 21.3855ZM141.392 15.0737C137.912 15.0737 135.081 17.9051 135.081 21.3855C135.081 24.8656 137.912 27.697 141.392 27.697C144.873 27.697 147.704 24.8656 147.704 21.3855C147.704 17.9051 144.873 15.0737 141.392 15.0737Z" fill="#8A8A8A"/>
<path fill-rule="evenodd" clip-rule="evenodd" d="M163.565 15.3434C163.504 15.2823 163.421 15.2478 163.335 15.2478H160.785C160.605 15.2478 160.459 15.3934 160.459 15.5735L160.449 27.1112C160.449 27.1981 160.483 27.2811 160.544 27.3424C160.605 27.4031 160.688 27.4379 160.775 27.4379H163.325C163.504 27.4379 163.65 27.2917 163.65 27.1119L163.661 15.5742C163.661 15.4876 163.626 15.4047 163.565 15.3434Z" fill="#8A8A8A"/>
<path fill-rule="evenodd" clip-rule="evenodd" d="M162.082 13.768C163.057 13.768 163.851 12.9836 163.851 12.0198C163.851 11.0444 163.057 10.2508 162.082 10.2508C161.118 10.2508 160.333 11.0444 160.333 12.0198C160.333 12.9836 161.118 13.768 162.082 13.768Z" fill="#8A8A8A"/>
<path fill-rule="evenodd" clip-rule="evenodd" d="M158.624 10.5174L149.353 10.5074C149.173 10.5074 149.027 10.653 149.027 10.8331L149.017 27.1116C149.017 27.1981 149.051 27.2811 149.112 27.3424C149.173 27.4031 149.256 27.4379 149.343 27.4379H151.892C152.072 27.4379 152.218 27.2917 152.218 27.1119L152.223 20.5547L157.935 20.562C157.935 20.562 157.935 20.562 157.936 20.562C158.022 20.562 158.105 20.5278 158.166 20.4665C158.227 20.4058 158.261 20.3225 158.261 20.236V17.8431C158.261 17.6633 158.116 17.5174 157.936 17.517L152.225 17.5097L152.227 13.5551L158.623 13.5624C158.623 13.5624 158.623 13.5624 158.623 13.5624C158.71 13.5624 158.793 13.5279 158.854 13.4668C158.915 13.4058 158.949 13.3229 158.949 13.2363V10.8434C158.949 10.6637 158.804 10.5177 158.624 10.5174Z" fill="#8A8A8A"/>
<path fill-rule="evenodd" clip-rule="evenodd" d="M129.061 17.5098C126.53 16.463 125.742 15.9798 125.742 15.0001C125.742 13.76 126.929 13.3183 128.04 13.3183C129.213 13.3183 130.466 13.9408 130.466 15.6883C130.466 15.8083 130.564 15.9055 130.683 15.9055H133.453C133.573 15.9055 133.67 15.8083 133.67 15.6883C133.67 12.4828 131.355 10.2444 128.04 10.2444C124.693 10.2444 122.531 12.1114 122.531 15.0001C122.531 18.4493 125.091 19.4324 127.567 20.3832L127.698 20.434C129.966 21.3059 130.822 21.7404 130.822 22.8531C130.822 24.3854 129.273 24.6142 128.35 24.6142C126.66 24.6142 125.434 23.4338 125.434 21.8074V21.6316C125.434 21.5115 125.337 21.4144 125.216 21.4144H122.434C122.317 21.4144 122.221 21.5076 122.217 21.625L122.216 21.6697C122.214 21.7155 122.212 21.7613 122.212 21.8074C122.212 25.2749 124.737 27.697 128.35 27.697C131.749 27.697 134.033 25.7505 134.033 22.8531C134.033 20.0231 132.567 18.9601 129.061 17.5098Z" fill="#8A8A8A"/>
<path fill-rule="evenodd" clip-rule="evenodd" d="M186.919 26.6436V26.8721H187.023C187.1 26.8721 187.148 26.8307 187.148 26.7594C187.148 26.6851 187.1 26.6436 187.023 26.6436H186.919ZM187.334 26.7564C187.334 26.8572 187.281 26.9401 187.192 26.9819L187.37 27.3169H187.157L187.008 27.0144H186.919V27.3169H186.733V26.4867H187.035C187.219 26.4867 187.334 26.5932 187.334 26.7564ZM186.412 26.8987C186.412 27.2575 186.653 27.5331 187.023 27.5331C187.391 27.5331 187.628 27.2575 187.628 26.8987C187.628 26.5368 187.391 26.2642 187.023 26.2642C186.653 26.2642 186.412 26.5368 186.412 26.8987ZM187.803 26.8987C187.803 27.3524 187.495 27.6963 187.023 27.6963C186.549 27.6963 186.238 27.3524 186.238 26.8987C186.238 26.442 186.549 26.101 187.023 26.101C187.495 26.101 187.803 26.442 187.803 26.8987Z" fill="#8A8A8A"/>
<path fill-rule="evenodd" clip-rule="evenodd" d="M183.694 10.2508C182.167 10.2508 180.929 11.4888 180.929 13.0158C180.929 14.5431 182.167 15.7812 183.694 15.7812C185.221 15.7812 186.459 14.5431 186.459 13.0158C186.459 11.4888 185.221 10.2508 183.694 10.2508ZM183.694 10.9967C184.807 10.9967 185.713 11.9024 185.713 13.0158C185.713 14.1292 184.807 15.0349 183.694 15.0349C182.58 15.0349 181.675 14.1292 181.675 13.0158C181.675 11.9024 182.58 10.9967 183.694 10.9967Z" fill="#8A8A8A"/>
<path fill-rule="evenodd" clip-rule="evenodd" d="M186.459 18.9734C186.459 17.4461 185.221 16.208 183.694 16.208C182.167 16.208 180.929 17.4461 180.929 18.9734C180.929 20.5007 182.167 21.7387 183.694 21.7387C185.221 21.7387 186.459 20.5007 186.459 18.9734Z" fill="#8A8A8A"/>
<path fill-rule="evenodd" clip-rule="evenodd" d="M186.459 24.9309C186.459 23.404 185.221 22.1656 183.694 22.1656C182.167 22.1656 180.929 23.404 180.929 24.9309C180.929 26.4582 182.167 27.6963 183.694 27.6963C185.221 27.6963 186.459 26.4582 186.459 24.9309Z" fill="#8A8A8A"/>
<path fill-rule="evenodd" clip-rule="evenodd" d="M177.737 16.208C176.209 16.208 174.971 17.4461 174.971 18.9734C174.971 20.5007 176.209 21.7387 177.737 21.7387C179.264 21.7387 180.502 20.5007 180.502 18.9734C180.502 17.4461 179.264 16.208 177.737 16.208ZM177.737 16.9542C178.276 16.9542 178.783 17.1642 179.164 17.5456C179.545 17.927 179.756 18.4341 179.756 18.9734C179.756 20.0868 178.85 20.9925 177.737 20.9925C177.197 20.9925 176.69 20.7826 176.308 20.4012C175.927 20.0201 175.717 19.5127 175.717 18.9734C175.717 17.86 176.623 16.9542 177.737 16.9542Z" fill="#8A8A8A"/>
<path fill-rule="evenodd" clip-rule="evenodd" d="M171.779 21.7387C173.306 21.7387 174.544 20.5007 174.544 18.9734C174.544 17.4461 173.306 16.208 171.779 16.208C170.252 16.208 169.014 17.4461 169.014 18.9734C169.014 20.5007 170.252 21.7387 171.779 21.7387Z" fill="#8A8A8A"/>
<path fill-rule="evenodd" clip-rule="evenodd" d="M177.737 15.7812C179.264 15.7812 180.502 14.5431 180.502 13.0158C180.502 11.4888 179.264 10.2508 177.737 10.2508C176.209 10.2508 174.971 11.4888 174.971 13.0158C174.971 14.5431 176.209 15.7812 177.737 15.7812Z" fill="#8A8A8A"/>
<path fill-rule="evenodd" clip-rule="evenodd" d="M171.779 15.7812C173.306 15.7812 174.544 14.5431 174.544 13.0158C174.544 11.4888 173.306 10.2508 171.779 10.2508C170.252 10.2508 169.014 11.4888 169.014 13.0158C169.014 14.5431 170.252 15.7812 171.779 15.7812Z" fill="#8A8A8A"/>
<path fill-rule="evenodd" clip-rule="evenodd" d="M177.737 27.6963C179.264 27.6963 180.502 26.4582 180.502 24.9309C180.502 23.404 179.264 22.1656 177.737 22.1656C176.209 22.1656 174.971 23.404 174.971 24.9309C174.971 26.4582 176.209 27.6963 177.737 27.6963Z" fill="#8A8A8A"/>
<path fill-rule="evenodd" clip-rule="evenodd" d="M171.779 22.1656C170.252 22.1656 169.014 23.404 169.014 24.9309C169.014 26.4582 170.252 27.6963 171.779 27.6963C173.306 27.6963 174.544 26.4582 174.544 24.9309C174.544 23.404 173.306 22.1656 171.779 22.1656ZM171.779 22.9118C172.318 22.9118 172.825 23.1217 173.207 23.5035C173.588 23.8845 173.798 24.3916 173.798 24.9309C173.798 26.0446 172.892 26.9501 171.779 26.9501C170.666 26.9501 169.759 26.0446 169.759 24.9309C169.759 23.8179 170.666 22.9118 171.779 22.9118Z" fill="#8A8A8A"/>
</g>
<path d="M15.632 24.4762C18.4962 24.4762 20.9124 22.3709 20.9124 19.0569C20.9124 15.744 18.4962 13.6038 15.632 13.6038C12.5248 13.6038 10.4543 16.0549 10.4543 19.0569C10.4543 22.06 12.5248 24.4762 15.632 24.4762ZM25.262 10.4281V27.652H21.085V24.6837C20.085 26.4445 17.8071 28.0663 14.8039 28.0663C9.69543 28.0663 6.10535 23.9927 6.10535 19.0569C6.10535 14.0867 9.69543 10.015 14.8039 10.015C17.8071 10.015 20.1535 11.567 21.0164 13.3963V10.4281H25.262Z" fill="#37315D"/>
<path d="M32.1881 27.6519H27.8385V10.428H32.0498V13.3626C32.8436 11.3607 35.0878 10.0149 37.7801 10.0149C41.9222 10.0149 44.2331 13.0517 44.2331 17.3308V27.6519H39.8854V18.0567C39.8854 15.6056 38.7801 13.8112 36.1913 13.8112C33.8099 13.8112 32.1881 15.5364 32.1881 18.0218L32.1881 27.6519Z" fill="#37315D"/>
<path d="M46.5993 5.28583H50.9489V10.428H55.4006V14.018H50.9489V21.8524C50.9489 23.6487 51.638 24.4412 53.3302 24.4412C53.9748 24.4337 54.6145 24.3293 55.228 24.1316V27.617C54.676 27.8244 53.2947 28.0662 52.1912 28.0662C48.1177 28.0662 46.5993 25.6151 46.5993 21.6468V14.018H46.5974V10.428H46.5993V5.28583Z" fill="#37315D"/>
<path d="M60.1993 17.6418H69.9328C69.6574 14.985 67.8966 13.1202 65.1003 13.1202C62.408 13.1202 60.5451 14.8461 60.1993 17.6418ZM60.2342 20.5066C60.5102 23.0954 62.1669 24.8562 65.2392 24.8562C67.3446 24.8562 68.9664 23.9241 69.7944 22.6119H73.8331C72.6593 25.6836 69.3465 28.0662 65.2392 28.0662C59.3712 28.0662 55.9537 24.1652 55.9537 19.0231C55.9537 13.8112 59.7158 10.0149 65.0318 10.0149C70.4499 10.0149 74.0749 13.7763 74.0749 19.0916V20.5066L60.2342 20.5066Z" fill="#37315D"/>
<path d="M86.4663 14.6051H85.5349C82.0482 14.6051 80.4264 16.6419 80.4264 19.9896V27.652H76.0768V10.4281H80.2874V14.1571C81.1167 11.4294 83.4295 10.291 86.4663 10.291V14.6051Z" fill="#37315D"/>
<path d="M92.9475 27.6519H88.5979V10.428H92.8092V13.3626C93.6029 11.3607 95.8472 10.0149 98.5395 10.0149C102.682 10.0149 104.993 13.0517 104.993 17.3308V27.6519H100.645V18.0567C100.645 15.6056 99.5395 13.8112 96.9507 13.8112C94.5693 13.8112 92.9475 15.5364 92.9475 18.0218V27.6519Z" fill="#37315D"/>
<path d="M4.34959 2.86935H0V28.066H4.34959V2.86935Z" fill="#37315D"/>
<path d="M104.866 7.07146L56.9409 4.15859V3.65328L104.866 0.5V7.07146Z" fill="#299C6C"/>
<rect x="113" width="1" height="28" fill="#D9D9D9"/>
<path d="M124.68 2.64844C125.242 2.64844 125.678 2.84115 125.988 3.22656C126.301 3.60938 126.457 4.15234 126.457 4.85547C126.457 5.55859 126.299 6.10547 125.984 6.49609C125.672 6.88411 125.237 7.07812 124.68 7.07812C124.401 7.07812 124.146 7.02734 123.914 6.92578C123.685 6.82161 123.492 6.66276 123.336 6.44922H123.289L123.152 7H122.688V0.921875H123.336V2.39844C123.336 2.72917 123.326 3.02604 123.305 3.28906H123.336C123.638 2.86198 124.086 2.64844 124.68 2.64844ZM124.586 3.19141C124.143 3.19141 123.824 3.31901 123.629 3.57422C123.434 3.82682 123.336 4.25391 123.336 4.85547C123.336 5.45703 123.436 5.88802 123.637 6.14844C123.837 6.40625 124.159 6.53516 124.602 6.53516C125 6.53516 125.297 6.39062 125.492 6.10156C125.688 5.8099 125.785 5.39193 125.785 4.84766C125.785 4.29036 125.688 3.875 125.492 3.60156C125.297 3.32812 124.995 3.19141 124.586 3.19141ZM126.946 2.71875H127.641L128.579 5.16016C128.785 5.71745 128.912 6.11979 128.962 6.36719H128.993C129.027 6.23438 129.097 6.00781 129.204 5.6875C129.313 5.36458 129.667 4.375 130.266 2.71875H130.962L129.122 7.59375C128.94 8.07552 128.726 8.41667 128.481 8.61719C128.239 8.82031 127.941 8.92188 127.587 8.92188C127.389 8.92188 127.193 8.89974 127.001 8.85547V8.33594C127.144 8.36719 127.304 8.38281 127.481 8.38281C127.927 8.38281 128.244 8.13281 128.434 7.63281L128.673 7.02344L126.946 2.71875Z" fill="#8A8A8A"/>
<defs>
<clipPath id="clip0">
<rect width="66" height="17.9095" fill="white" transform="translate(122 10)"/>
</clipPath>
</defs>
</svg>